<svg width="18" height="19" viewBox="0 0 18 19" fill="none" xmlns="http://www.w3.org/2000/svg">
<path d="M5.625 9.25C5.64844 8.28906 5.97656 7.49219 6.60938 6.85938C7.24219 6.22656 8.03906 5.89844 9 5.875C9.96094 5.89844 10.7578 6.22656 11.3906 6.85938C12.0234 7.49219 12.3516 8.28906 12.375 9.25C12.3516 10.2109 12.0234 11.0078 11.3906 11.6406C10.7578 12.2734 9.96094 12.6016 9 12.625C8.03906 12.6016 7.24219 12.2734 6.60938 11.6406C5.97656 11.0078 5.64844 10.2109 5.625 9.25ZM9 7.5625C8.53125 7.58594 8.13281 7.75 7.80469 8.05469C7.5 8.38281 7.33594 8.78125 7.3125 9.25C7.33594 9.71875 7.5 10.1172 7.80469 10.4453C8.13281 10.75 8.53125 10.9141 9 10.9375C9.46875 10.9141 9.86719 10.75 10.1953 10.4453C10.5 10.1172 10.6641 9.71875 10.6875 9.25C10.6641 8.78125 10.5 8.38281 10.1953 8.05469C9.86719 7.75 9.46875 7.58594 9 7.5625ZM10.3008 0.25C10.6992 0.25 11.0508 0.367187 11.3555 0.601562C11.6602 0.835938 11.8594 1.15234 11.9531 1.55078L12.2344 2.67578C12.5156 2.81641 12.7969 2.98047 13.0781 3.16797L14.2031 2.85156C14.5781 2.73438 14.9414 2.74609 15.293 2.88672C15.6445 3.02734 15.9258 3.27344 16.1367 3.625L17.4375 5.875C17.625 6.22656 17.6953 6.58984 17.6484 6.96484C17.6016 7.33984 17.4375 7.66797 17.1562 7.94922L16.3125 8.72266C16.3125 8.91016 16.3125 9.08594 16.3125 9.25C16.3125 9.41406 16.3125 9.57812 16.3125 9.74219L17.1562 10.5508C17.4375 10.832 17.6016 11.1602 17.6484 11.5352C17.6953 11.9102 17.625 12.2734 17.4375 12.625L16.1367 14.875C15.9258 15.2266 15.6445 15.4727 15.293 15.6133C14.9414 15.7539 14.5781 15.7656 14.2031 15.6484L13.0781 15.332C12.7969 15.4961 12.5156 15.6602 12.2344 15.8242L11.9531 16.9492C11.8594 17.3477 11.6602 17.6641 11.3555 17.8984C11.0508 18.1328 10.6992 18.25 10.3008 18.25H7.69922C7.30078 18.25 6.94922 18.1328 6.64453 17.8984C6.33984 17.6641 6.14062 17.3477 6.04688 16.9492L5.76562 15.8242C5.48438 15.6836 5.20312 15.5195 4.92188 15.332L3.76172 15.6484C3.38672 15.7656 3.02344 15.7539 2.67188 15.6133C2.34375 15.4727 2.07422 15.2266 1.86328 14.875L0.5625 12.625C0.351562 12.2734 0.28125 11.9102 0.351562 11.5352C0.398438 11.1602 0.5625 10.832 0.84375 10.5508L1.6875 9.74219C1.6875 9.57812 1.6875 9.40234 1.6875 9.21484C1.6875 9.07422 1.6875 8.91016 1.6875 8.72266L0.84375 7.94922C0.5625 7.66797 0.398438 7.33984 0.351562 6.96484C0.28125 6.58984 0.351562 6.22656 0.5625 5.875L1.86328 3.625C2.07422 3.27344 2.34375 3.02734 2.67188 2.88672C3.02344 2.74609 3.38672 2.73438 3.76172 2.85156L4.92188 3.16797C5.20312 2.98047 5.48438 2.81641 5.76562 2.67578L6.04688 1.55078C6.14062 1.15234 6.33984 0.835938 6.64453 0.601562C6.94922 0.367187 7.30078 0.25 7.69922 0.25H10.3008ZM7.24219 3.90625L6.82031 4.04688C6.375 4.23437 5.96484 4.48047 5.58984 4.78516L5.23828 5.03125L3.30469 4.46875L2.00391 6.71875L3.48047 8.125L3.41016 8.54688C3.38672 8.78125 3.375 9.01562 3.375 9.25C3.375 9.48438 3.38672 9.71875 3.41016 9.95312L3.48047 10.375L2.00391 11.7812L3.30469 14.0312L5.23828 13.4688L5.58984 13.7148C5.96484 14.0195 6.375 14.2656 6.82031 14.4531L7.24219 14.5938L7.69922 16.5625H10.3008L10.793 14.5938L11.1797 14.4531C11.625 14.2656 12.0352 14.0195 12.4102 13.7148L12.7617 13.4688L14.6953 14.0312L15.9961 11.7812L14.5195 10.375L14.5898 9.95312C14.6133 9.71875 14.625 9.48438 14.625 9.25C14.625 9.01562 14.6133 8.78125 14.5898 8.54688L14.5195 8.125L15.9961 6.71875L14.6953 4.46875L12.7617 5.03125L12.4102 4.78516C12.0352 4.48047 11.625 4.23437 11.1797 4.04688L10.793 3.90625L10.3008 1.9375H7.69922L7.24219 3.90625Z" fill="#DEE4DF"/>
</svg>
