<svg width="19" height="17" viewBox="0 0 19 17" fill="none" xmlns="http://www.w3.org/2000/svg">
<path d="M6.75 15.2812C6.70312 14.7656 6.42188 14.4844 5.90625 14.4375H3.375C2.90625 14.4141 2.50781 14.25 2.17969 13.9453C1.875 13.6172 1.71094 13.2188 1.6875 12.75V3.75C1.71094 3.28125 1.875 2.88281 2.17969 2.55469C2.50781 2.25 2.90625 2.08594 3.375 2.0625H5.90625C6.42188 2.01563 6.70312 1.73438 6.75 1.21875C6.70312 0.703125 6.42188 0.421875 5.90625 0.375H3.375C2.41406 0.398438 1.61719 0.726562 0.984375 1.35938C0.351562 1.99219 0.0234375 2.78906 0 3.75V12.75C0.0234375 13.7109 0.351562 14.5078 0.984375 15.1406C1.61719 15.7734 2.41406 16.1016 3.375 16.125H5.90625C6.42188 16.0781 6.70312 15.7969 6.75 15.2812ZM17.7891 7.6875C18.0938 8.0625 18.0703 8.4375 17.7188 8.8125L13.2539 13.5938C13.0664 13.7812 12.8555 13.875 12.6211 13.875C12.4336 13.875 12.2461 13.793 12.0586 13.6289C11.707 13.2539 11.6953 12.8672 12.0234 12.4688L15.1875 9.09375H6.43359C5.94141 9.04688 5.67188 8.76562 5.625 8.25C5.67188 7.73438 5.94141 7.45312 6.43359 7.40625H15.1875L12.0586 4.03125C11.7539 3.63281 11.7656 3.24609 12.0938 2.87109C12.5156 2.54297 12.9141 2.55469 13.2891 2.90625L17.7891 7.6875Z" fill="#EBF0ED"/>
</svg>
