<svg width="15" height="15" viewBox="0 0 15 15" fill="none" xmlns="http://www.w3.org/2000/svg">
<path d="M10.75 3C10.9323 3 11.082 3.05859 11.1992 3.17578C11.3164 3.29297 11.375 3.44271 11.375 3.625C11.375 3.80729 11.3164 3.95703 11.1992 4.07422C11.082 4.19141 10.9323 4.25 10.75 4.25H3.5625C3.36719 4.26302 3.26302 4.36719 3.25 4.5625C3.26302 4.75781 3.36719 4.86198 3.5625 4.875H10.75C11.1016 4.88802 11.3945 5.01172 11.6289 5.24609C11.8633 5.48047 11.987 5.77344 12 6.125V10.5C11.987 10.8516 11.8633 11.1445 11.6289 11.3789C11.3945 11.6133 11.1016 11.737 10.75 11.75H3.25C2.89844 11.737 2.60547 11.6133 2.37109 11.3789C2.13672 11.1445 2.01302 10.8516 2 10.5V4.25C2.01302 3.89844 2.13672 3.60547 2.37109 3.37109C2.60547 3.13672 2.89844 3.01302 3.25 3H10.75ZM10.125 8.9375C10.3073 8.9375 10.457 8.87891 10.5742 8.76172C10.6914 8.64453 10.75 8.49479 10.75 8.3125C10.75 8.13021 10.6914 7.98047 10.5742 7.86328C10.457 7.74609 10.3073 7.6875 10.125 7.6875C9.94271 7.6875 9.79297 7.74609 9.67578 7.86328C9.55859 7.98047 9.5 8.13021 9.5 8.3125C9.5 8.49479 9.55859 8.64453 9.67578 8.76172C9.79297 8.87891 9.94271 8.9375 10.125 8.9375Z" fill="white"/>
</svg>
