<svg width="15" height="15" viewBox="0 0 15 15" fill="none" xmlns="http://www.w3.org/2000/svg">
<path d="M5.375 7C4.67188 6.98698 4.07943 6.74609 3.59766 6.27734C3.12891 5.79557 2.88802 5.20312 2.875 4.5C2.88802 3.79688 3.12891 3.20443 3.59766 2.72266C4.07943 2.25391 4.67188 2.01302 5.375 2C6.07812 2.01302 6.67057 2.25391 7.15234 2.72266C7.62109 3.20443 7.86198 3.79688 7.875 4.5C7.86198 5.20312 7.62109 5.79557 7.15234 6.27734C6.67057 6.74609 6.07812 6.98698 5.375 7ZM6.37109 7.9375C7.32161 7.96354 8.11589 8.29557 8.75391 8.93359C9.39193 9.57161 9.72396 10.3659 9.75 11.3164C9.75 11.5117 9.6849 11.6745 9.55469 11.8047C9.42448 11.9349 9.26172 12 9.06641 12H1.68359C1.48828 12 1.32552 11.9349 1.19531 11.8047C1.0651 11.6745 1 11.5117 1 11.3164C1.02604 10.3659 1.35807 9.57161 1.99609 8.93359C2.63411 8.29557 3.42839 7.96354 4.37891 7.9375H6.37109ZM13.0312 5.90625C13.3177 5.93229 13.474 6.08854 13.5 6.375C13.474 6.66146 13.3177 6.81771 13.0312 6.84375H12.0938V7.78125C12.0677 8.06771 11.9115 8.22396 11.625 8.25C11.3385 8.22396 11.1823 8.06771 11.1562 7.78125V6.84375H10.2188C9.93229 6.81771 9.77604 6.66146 9.75 6.375C9.77604 6.08854 9.93229 5.93229 10.2188 5.90625H11.1562V4.96875C11.1823 4.68229 11.3385 4.52604 11.625 4.5C11.9115 4.52604 12.0677 4.68229 12.0938 4.96875V5.90625H13.0312Z" fill="white"/>
</svg>
