<svg width="15" height="15" viewBox="0 0 15 15" fill="none" xmlns="http://www.w3.org/2000/svg">
<g clip-path="url(#clip0_43_3646)">
<path d="M9.05078 5.55078C9.18099 5.43359 9.33073 5.375 9.5 5.375C9.66927 5.375 9.81901 5.43359 9.94922 5.55078C10.0664 5.68099 10.125 5.83073 10.125 6C10.125 6.16927 10.0664 6.31901 9.94922 6.44922L7.44922 8.94922C7.31901 9.06641 7.16927 9.125 7 9.125C6.83073 9.125 6.68099 9.06641 6.55078 8.94922L4.05078 6.44922C3.93359 6.31901 3.875 6.16927 3.875 6C3.875 5.83073 3.93359 5.68099 4.05078 5.55078C4.18099 5.43359 4.33073 5.375 4.5 5.375C4.66927 5.375 4.81901 5.43359 4.94922 5.55078L6.375 6.99609V3.5C6.375 3.31771 6.43359 3.16797 6.55078 3.05078C6.66797 2.93359 6.81771 2.875 7 2.875C7.18229 2.875 7.33203 2.93359 7.44922 3.05078C7.56641 3.16797 7.625 3.31771 7.625 3.5V6.99609L9.05078 5.55078ZM10.125 10.375C10.3073 10.375 10.457 10.4336 10.5742 10.5508C10.6914 10.668 10.75 10.8177 10.75 11C10.75 11.1823 10.6914 11.332 10.5742 11.4492C10.457 11.5664 10.3073 11.625 10.125 11.625H3.875C3.69271 11.625 3.54297 11.5664 3.42578 11.4492C3.30859 11.332 3.25 11.1823 3.25 11C3.25 10.8177 3.30859 10.668 3.42578 10.5508C3.54297 10.4336 3.69271 10.375 3.875 10.375H10.125Z" fill="white"/>
</g>
<defs>
<clipPath id="clip0_43_3646">
<rect width="8" height="10" fill="white" transform="translate(3 2)"/>
</clipPath>
</defs>
</svg>
