<svg width="15" height="15" viewBox="0 0 15 15" fill="none" xmlns="http://www.w3.org/2000/svg">
<g clip-path="url(#clip0_43_3650)">
<path d="M5.8125 4.4375C5.82552 3.8125 6.04036 3.29818 6.45703 2.89453C6.86068 2.47787 7.375 2.26302 8 2.25C8.625 2.26302 9.13932 2.47787 9.54297 2.89453C9.95964 3.29818 10.1745 3.8125 10.1875 4.4375V5.375H11.4375C11.6979 5.38802 11.9193 5.47917 12.1016 5.64844C12.2708 5.83073 12.362 6.05208 12.375 6.3125V10.375C12.362 10.9089 12.1797 11.3516 11.8281 11.7031C11.4766 12.0547 11.0339 12.237 10.5 12.25H5.5C4.96615 12.237 4.52344 12.0547 4.17188 11.7031C3.82031 11.3516 3.63802 10.9089 3.625 10.375V6.3125C3.63802 6.05208 3.72917 5.83073 3.89844 5.64844C4.08073 5.47917 4.30208 5.38802 4.5625 5.375H5.8125V4.4375ZM6.75 5.375H9.25V4.4375C9.23698 4.08594 9.11328 3.79297 8.87891 3.55859C8.64453 3.32422 8.35156 3.20052 8 3.1875C7.64844 3.20052 7.35547 3.32422 7.12109 3.55859C6.88672 3.79297 6.76302 4.08594 6.75 4.4375V5.375ZM6.28125 7.25C6.56771 7.22396 6.72396 7.06771 6.75 6.78125C6.72396 6.49479 6.56771 6.33854 6.28125 6.3125C5.99479 6.33854 5.83854 6.49479 5.8125 6.78125C5.83854 7.06771 5.99479 7.22396 6.28125 7.25ZM9.71875 6.3125C9.43229 6.33854 9.27604 6.49479 9.25 6.78125C9.27604 7.06771 9.43229 7.22396 9.71875 7.25C10.0052 7.22396 10.1615 7.06771 10.1875 6.78125C10.1615 6.49479 10.0052 6.33854 9.71875 6.3125Z" fill="white"/>
</g>
<defs>
<clipPath id="clip0_43_3650">
<rect width="10" height="11" fill="white" transform="translate(3 2)"/>
</clipPath>
</defs>
</svg>
