<svg width="22" height="12" viewBox="0 0 22 12" fill="none" xmlns="http://www.w3.org/2000/svg">
<path d="M14.2188 10.1875H18.3672L12.25 4.07031L8.3125 7.9375C7.9375 8.28906 7.55078 8.28906 7.15234 7.9375L1.24609 2.03125C0.917969 1.65625 0.917969 1.26953 1.24609 0.871094C1.64453 0.542969 2.04297 0.542969 2.44141 0.871094L7.75 6.17969L11.6523 2.27734C12.0508 1.94922 12.4375 1.94922 12.8125 2.27734L19.5625 8.99219V4.84375C19.6094 4.32812 19.8906 4.04688 20.4062 4C20.9219 4.04688 21.2031 4.32812 21.25 4.84375V11.0312C21.2031 11.5469 20.9219 11.8281 20.4062 11.875H14.2188C13.7031 11.8281 13.4219 11.5469 13.375 11.0312C13.4219 10.5156 13.7031 10.2344 14.2188 10.1875Z" fill="#E2362F"/>
</svg>
