<svg width="22" height="13" viewBox="0 0 22 13" fill="none" xmlns="http://www.w3.org/2000/svg">
<path d="M13.375 1.46875C13.4219 0.953125 13.7031 0.671875 14.2188 0.625H20.4062C20.9219 0.671875 21.2031 0.953125 21.25 1.46875V7.65625C21.2031 8.17188 20.9219 8.45312 20.4062 8.5C19.8906 8.45312 19.6094 8.17188 19.5625 7.65625V3.50781L12.8125 10.1875C12.4375 10.5391 12.0508 10.5391 11.6523 10.1875L7.75 6.32031L2.44141 11.5938C2.04297 11.9453 1.64453 11.9453 1.24609 11.5938C0.917969 11.2188 0.917969 10.832 1.24609 10.4336L7.15234 4.52734C7.55078 4.19922 7.9375 4.19922 8.3125 4.52734L12.25 8.42969L18.3672 2.3125H14.2188C13.7031 2.26563 13.4219 1.98438 13.375 1.46875Z" fill="#15CAB8"/>
</svg>
