<svg width="23" height="23" viewBox="0 0 23 23" fill="none" xmlns="http://www.w3.org/2000/svg">
<path d="M22.2747 4.68219C23.1337 3.82322 23.1337 2.42825 22.2747 1.56928C21.4157 0.710306 20.0207 0.710306 19.1618 1.56928L11.9258 8.81213L4.68293 1.57615C3.82395 0.717177 2.42898 0.717177 1.57001 1.57615C0.711038 2.43512 0.711038 3.83009 1.57001 4.68907L8.81286 11.925L1.57688 19.1679C0.71791 20.0269 0.71791 21.4218 1.57688 22.2808C2.43585 23.1398 3.83083 23.1398 4.6898 22.2808L11.9258 15.038L19.1686 22.2739C20.0276 23.1329 21.4226 23.1329 22.2816 22.2739C23.1405 21.415 23.1405 20.02 22.2816 19.161L15.0387 11.925L22.2747 4.68219Z" fill="white"/>
</svg>
