<svg width="16" height="17" viewBox="0 0 16 17" fill="none" xmlns="http://www.w3.org/2000/svg">
<path d="M5.0625 0.375C5.53125 0.398438 5.92969 0.5625 6.25781 0.867188C6.5625 1.19531 6.72656 1.59375 6.75 2.0625V7.6875C6.72656 8.15625 6.5625 8.55469 6.25781 8.88281C5.92969 9.1875 5.53125 9.35156 5.0625 9.375H1.6875C1.21875 9.35156 0.820312 9.1875 0.492188 8.88281C0.1875 8.55469 0.0234375 8.15625 0 7.6875V2.0625C0.0234375 1.59375 0.1875 1.19531 0.492188 0.867188C0.820312 0.5625 1.21875 0.398438 1.6875 0.375H5.0625ZM14.0625 7.125C14.5312 7.14844 14.9297 7.3125 15.2578 7.61719C15.5625 7.94531 15.7266 8.34375 15.75 8.8125V14.4375C15.7266 14.9062 15.5625 15.3047 15.2578 15.6328C14.9297 15.9375 14.5312 16.1016 14.0625 16.125H10.6875C10.2188 16.1016 9.82031 15.9375 9.49219 15.6328C9.1875 15.3047 9.02344 14.9062 9 14.4375V8.8125C9.02344 8.34375 9.1875 7.94531 9.49219 7.61719C9.82031 7.3125 10.2188 7.14844 10.6875 7.125H14.0625ZM0 13.3125C0.0234375 12.8438 0.1875 12.4453 0.492188 12.1172C0.820312 11.8125 1.21875 11.6484 1.6875 11.625H5.0625C5.53125 11.6484 5.92969 11.8125 6.25781 12.1172C6.5625 12.4453 6.72656 12.8438 6.75 13.3125V14.4375C6.72656 14.9062 6.5625 15.3047 6.25781 15.6328C5.92969 15.9375 5.53125 16.1016 5.0625 16.125H1.6875C1.21875 16.1016 0.820312 15.9375 0.492188 15.6328C0.1875 15.3047 0.0234375 14.9062 0 14.4375V13.3125ZM14.0625 0.375C14.5312 0.398438 14.9297 0.5625 15.2578 0.867188C15.5625 1.19531 15.7266 1.59375 15.75 2.0625V3.1875C15.7266 3.65625 15.5625 4.05469 15.2578 4.38281C14.9297 4.6875 14.5312 4.85156 14.0625 4.875H10.6875C10.2188 4.85156 9.82031 4.6875 9.49219 4.38281C9.1875 4.05469 9.02344 3.65625 9 3.1875V2.0625C9.02344 1.59375 9.1875 1.19531 9.49219 0.867188C9.82031 0.5625 10.2188 0.398438 10.6875 0.375H14.0625Z" fill="white"/>
</svg>
