<svg width="16" height="19" viewBox="0 0 16 19" fill="none" xmlns="http://www.w3.org/2000/svg">
<path d="M3.9375 5.875V4.1875C3.96094 3.0625 4.34766 2.13672 5.09766 1.41016C5.82422 0.660156 6.75 0.273438 7.875 0.25C9 0.273438 9.92578 0.660156 10.6523 1.41016C11.4023 2.13672 11.7891 3.0625 11.8125 4.1875V5.875H14.0625C14.5312 5.89844 14.9297 6.0625 15.2578 6.36719C15.5625 6.69531 15.7266 7.09375 15.75 7.5625V14.875C15.7266 15.8359 15.3984 16.6328 14.7656 17.2656C14.1328 17.8984 13.3359 18.2266 12.375 18.25H3.375C2.41406 18.2266 1.61719 17.8984 0.984375 17.2656C0.351562 16.6328 0.0234375 15.8359 0 14.875V7.5625C0.0234375 7.09375 0.1875 6.69531 0.492188 6.36719C0.820312 6.0625 1.21875 5.89844 1.6875 5.875H3.9375ZM5.625 5.875H10.125V4.1875C10.1016 3.55469 9.87891 3.02734 9.45703 2.60547C9.03516 2.18359 8.50781 1.96094 7.875 1.9375C7.24219 1.96094 6.71484 2.18359 6.29297 2.60547C5.87109 3.02734 5.64844 3.55469 5.625 4.1875V5.875ZM1.6875 7.5625V14.875C1.71094 15.3438 1.875 15.7422 2.17969 16.0703C2.50781 16.375 2.90625 16.5391 3.375 16.5625H12.375C12.8438 16.5391 13.2422 16.375 13.5703 16.0703C13.875 15.7422 14.0391 15.3438 14.0625 14.875V7.5625H11.8125V9.53125C11.7656 10.0469 11.4844 10.3281 10.9688 10.375C10.4531 10.3281 10.1719 10.0469 10.125 9.53125V7.5625H5.625V9.53125C5.57812 10.0469 5.29688 10.3281 4.78125 10.375C4.26562 10.3281 3.98438 10.0469 3.9375 9.53125V7.5625H1.6875Z" fill="#DEE4DF"/>
</svg>
