<svg width="16" height="17" viewBox="0 0 16 17" fill="none" xmlns="http://www.w3.org/2000/svg">
<path d="M4.5 6C4.17188 6 3.90234 5.89453 3.69141 5.68359C3.48047 5.47266 3.375 5.20312 3.375 4.875C3.375 4.54688 3.48047 4.27734 3.69141 4.06641C3.90234 3.85547 4.17188 3.75 4.5 3.75C4.82812 3.75 5.09766 3.85547 5.30859 4.06641C5.51953 4.27734 5.625 4.54688 5.625 4.875C5.625 5.20312 5.51953 5.47266 5.30859 5.68359C5.09766 5.89453 4.82812 6 4.5 6ZM7.03125 4.875C7.07812 4.35938 7.35938 4.07812 7.875 4.03125H11.25C11.7656 4.07812 12.0469 4.35938 12.0938 4.875C12.0469 5.39062 11.7656 5.67188 11.25 5.71875H7.875C7.35938 5.67188 7.07812 5.39062 7.03125 4.875ZM7.03125 8.25C7.07812 7.73438 7.35938 7.45312 7.875 7.40625H11.25C11.7656 7.45312 12.0469 7.73438 12.0938 8.25C12.0469 8.76562 11.7656 9.04688 11.25 9.09375H7.875C7.35938 9.04688 7.07812 8.76562 7.03125 8.25ZM7.03125 11.625C7.07812 11.1094 7.35938 10.8281 7.875 10.7812H11.25C11.7656 10.8281 12.0469 11.1094 12.0938 11.625C12.0469 12.1406 11.7656 12.4219 11.25 12.4688H7.875C7.35938 12.4219 7.07812 12.1406 7.03125 11.625ZM4.5 7.125C4.82812 7.125 5.09766 7.23047 5.30859 7.44141C5.51953 7.65234 5.625 7.92188 5.625 8.25C5.625 8.57812 5.51953 8.84766 5.30859 9.05859C5.09766 9.26953 4.82812 9.375 4.5 9.375C4.17188 9.375 3.90234 9.26953 3.69141 9.05859C3.48047 8.84766 3.375 8.57812 3.375 8.25C3.375 7.92188 3.48047 7.65234 3.69141 7.44141C3.90234 7.23047 4.17188 7.125 4.5 7.125ZM4.5 12.75C4.17188 12.75 3.90234 12.6445 3.69141 12.4336C3.48047 12.2227 3.375 11.9531 3.375 11.625C3.375 11.2969 3.48047 11.0273 3.69141 10.8164C3.90234 10.6055 4.17188 10.5 4.5 10.5C4.82812 10.5 5.09766 10.6055 5.30859 10.8164C5.51953 11.0273 5.625 11.2969 5.625 11.625C5.625 11.9531 5.51953 12.2227 5.30859 12.4336C5.09766 12.6445 4.82812 12.75 4.5 12.75ZM0 2.625C0.0234375 1.99219 0.246094 1.46484 0.667969 1.04297C1.08984 0.621094 1.61719 0.398438 2.25 0.375H13.5C14.1328 0.398438 14.6602 0.621094 15.082 1.04297C15.5039 1.46484 15.7266 1.99219 15.75 2.625V13.875C15.7266 14.5078 15.5039 15.0352 15.082 15.457C14.6602 15.8789 14.1328 16.1016 13.5 16.125H2.25C1.61719 16.1016 1.08984 15.8789 0.667969 15.457C0.246094 15.0352 0.0234375 14.5078 0 13.875V2.625ZM1.6875 2.625V13.875C1.71094 14.2266 1.89844 14.4141 2.25 14.4375H13.5C13.8516 14.4141 14.0391 14.2266 14.0625 13.875V2.625C14.0391 2.27344 13.8516 2.08594 13.5 2.0625H2.25C1.89844 2.08594 1.71094 2.27344 1.6875 2.625Z" fill="#DEE4DF"/>
</svg>
