<svg width="18" height="19" viewBox="0 0 18 19" fill="none" xmlns="http://www.w3.org/2000/svg">
<path d="M5.625 7C5.625 6.67188 5.73047 6.40234 5.94141 6.19141C6.15234 5.98047 6.42188 5.875 6.75 5.875C7.07812 5.875 7.34766 5.98047 7.55859 6.19141C7.76953 6.40234 7.875 6.67188 7.875 7C7.875 7.32812 7.76953 7.59766 7.55859 7.80859C7.34766 8.01953 7.07812 8.125 6.75 8.125C6.42188 8.125 6.15234 8.01953 5.94141 7.80859C5.73047 7.59766 5.625 7.32812 5.625 7ZM12.375 11.5C12.375 11.8281 12.2695 12.0977 12.0586 12.3086C11.8477 12.5195 11.5781 12.625 11.25 12.625C10.9219 12.625 10.6523 12.5195 10.4414 12.3086C10.2305 12.0977 10.125 11.8281 10.125 11.5C10.125 11.1719 10.2305 10.9023 10.4414 10.6914C10.6523 10.4805 10.9219 10.375 11.25 10.375C11.5781 10.375 11.8477 10.4805 12.0586 10.6914C12.2695 10.9023 12.375 11.1719 12.375 11.5ZM7.3125 12.0625C6.9375 12.4141 6.55078 12.4141 6.15234 12.0625C5.82422 11.6875 5.82422 11.3008 6.15234 10.9023L10.6523 6.40234C11.0508 6.07422 11.4375 6.07422 11.8125 6.40234C12.1641 6.80078 12.1641 7.1875 11.8125 7.5625L7.3125 12.0625ZM12.0938 1.76172C13.3125 1.62109 14.4023 1.99609 15.3633 2.88672C16.2539 3.82422 16.6289 4.91406 16.4883 6.15625C17.4258 6.90625 17.9297 7.9375 18 9.25C17.9297 10.5625 17.4258 11.5938 16.4883 12.3438C16.6289 13.5625 16.2539 14.6523 15.3633 15.6133C14.4023 16.5039 13.3125 16.8789 12.0938 16.7383C11.3438 17.6758 10.3125 18.1797 9 18.25C7.6875 18.1797 6.65625 17.6758 5.90625 16.7383C4.66406 16.8789 3.57422 16.5039 2.63672 15.6133C1.74609 14.6523 1.37109 13.5625 1.51172 12.3438C0.550781 11.5938 0.046875 10.5625 0 9.25C0.046875 7.9375 0.550781 6.90625 1.51172 6.15625C1.37109 4.91406 1.74609 3.82422 2.63672 2.88672C3.57422 1.99609 4.66406 1.62109 5.90625 1.76172C6.65625 0.800781 7.6875 0.296875 9 0.25C10.3125 0.296875 11.3438 0.800781 12.0938 1.76172ZM6.67969 3.73047L6.04688 3.51953C5.20312 3.28516 4.46484 3.47266 3.83203 4.08203C3.22266 4.71484 3.03516 5.45312 3.26953 6.29688L3.48047 6.92969L2.88281 7.28125C2.13281 7.70312 1.73438 8.35938 1.6875 9.25C1.73438 10.1406 2.13281 10.7969 2.88281 11.2188L3.48047 11.5352L3.26953 12.168C3.03516 13.0117 3.22266 13.7617 3.83203 14.418C4.46484 15.0273 5.20312 15.2148 6.04688 14.9805L6.67969 14.7695L7.03125 15.4023C7.45312 16.1289 8.10938 16.5156 9 16.5625C9.89062 16.5156 10.5469 16.1289 10.9688 15.4023L11.2852 14.7695L11.918 14.9805C12.7617 15.2148 13.5117 15.0273 14.168 14.418C14.7773 13.7617 14.9648 13.0117 14.7305 12.168L14.5195 11.5352L15.1523 11.2188C15.8789 10.7969 16.2656 10.1406 16.3125 9.25C16.2656 8.35938 15.8789 7.70312 15.1523 7.28125L14.5195 6.92969L14.7305 6.29688C14.9648 5.45312 14.7773 4.71484 14.168 4.08203C13.5117 3.47266 12.7617 3.28516 11.918 3.51953L11.2852 3.73047L10.9688 3.13281C10.5469 2.38281 9.89062 1.98437 9 1.9375C8.10938 1.98437 7.45312 2.38281 7.03125 3.13281L6.67969 3.73047Z" fill="#DEE4DF"/>
</svg>
