<svg width="19" height="19" viewBox="0 0 19 19" fill="none" xmlns="http://www.w3.org/2000/svg">
<path d="M16.7148 0.25C17.3711 0.273438 17.9102 0.496094 18.332 0.917969C18.7305 1.33984 18.9414 1.85547 18.9648 2.46484V12.5547C18.9414 13.1875 18.7188 13.7148 18.2969 14.1367C17.875 14.5586 17.3477 14.7695 16.7148 14.7695H11.6523L7.25781 18.0742C7.11719 18.168 6.97656 18.1797 6.83594 18.1094C6.69531 18.0391 6.61328 17.9102 6.58984 17.7227V14.7695H3.21484C2.58203 14.7695 2.05469 14.5586 1.63281 14.1367C1.21094 13.7148 0.988281 13.1875 0.964844 12.5547V2.46484C0.988281 1.85547 1.21094 1.33984 1.63281 0.917969C2.05469 0.496094 2.58203 0.273438 3.21484 0.25H16.7148ZM17.3125 12.625V2.5C17.2891 2.14844 17.1016 1.96094 16.75 1.9375H3.25C2.89844 1.96094 2.71094 2.14844 2.6875 2.5V12.625C2.71094 12.9766 2.89844 13.1641 3.25 13.1875H8.3125V15.2969L11.125 13.1875H16.75C17.1016 13.1641 17.2891 12.9766 17.3125 12.625ZM12.4961 4.1875C13.0586 4.21094 13.5273 4.41016 13.9023 4.78516C14.2773 5.13672 14.4648 5.60547 14.4648 6.19141V8.40625C14.4414 9.10938 14.1953 9.69531 13.7266 10.1641C13.2578 10.6328 12.6602 10.8789 11.9336 10.9023C11.4414 10.8555 11.1719 10.5859 11.125 10.0938C11.1719 9.57812 11.4531 9.29688 11.9688 9.25C12.4844 9.20312 12.7539 8.92188 12.7773 8.40625V8.01953C12.7773 8.01953 12.7656 8.03125 12.7422 8.05469C12.6719 8.05469 12.5898 8.05469 12.4961 8.05469C11.9336 8.05469 11.4766 7.86719 11.125 7.49219C10.75 7.11719 10.5508 6.66016 10.5273 6.12109C10.5508 5.58203 10.75 5.125 11.125 4.75C11.4766 4.39844 11.9336 4.21094 12.4961 4.1875ZM7.43359 4.1875C7.99609 4.21094 8.46484 4.39844 8.83984 4.75C9.21484 5.125 9.40234 5.59375 9.40234 6.15625L9.36719 8.40625C9.34375 9.10938 9.10938 9.69531 8.66406 10.1641C8.19531 10.6328 7.59766 10.8789 6.87109 10.9023C6.37891 10.8555 6.10938 10.5859 6.0625 10.0938C6.10938 9.57812 6.39062 9.29688 6.90625 9.25C7.42188 9.20312 7.69141 8.92188 7.71484 8.40625V8.01953C7.71484 8.01953 7.70312 8.03125 7.67969 8.05469C7.60938 8.05469 7.52734 8.05469 7.43359 8.05469C6.87109 8.05469 6.41406 7.86719 6.0625 7.49219C5.6875 7.11719 5.48828 6.66016 5.46484 6.12109C5.48828 5.58203 5.6875 5.125 6.0625 4.75C6.41406 4.39844 6.87109 4.21094 7.43359 4.1875Z" fill="#DEE4DF"/>
</svg>
