<svg width="9" height="6" viewBox="0 0 9 6" fill="none" xmlns="http://www.w3.org/2000/svg">
<path d="M4.375 5.375C4.20573 5.375 4.05599 5.31641 3.92578 5.19922L0.175781 1.44922C0.0585938 1.31901 0 1.16927 0 1C0 0.830729 0.0585938 0.68099 0.175781 0.550781C0.30599 0.433594 0.455729 0.375 0.625 0.375C0.794271 0.375 0.94401 0.433594 1.07422 0.550781L4.375 3.87109L7.67578 0.550781C7.80599 0.433594 7.95573 0.375 8.125 0.375C8.29427 0.375 8.44401 0.433594 8.57422 0.550781C8.69141 0.68099 8.75 0.830729 8.75 1C8.75 1.16927 8.69141 1.31901 8.57422 1.44922L4.82422 5.19922C4.69401 5.31641 4.54427 5.375 4.375 5.375Z" fill="#6B6B6B"/>
</svg>
