<svg width="6" height="16" viewBox="0 0 6 16" fill="none" xmlns="http://www.w3.org/2000/svg">
<g clip-path="url(#clip0_53_3623)">
<path d="M6.07422 11.0742L3.59375 13.5742C3.45052 13.6914 3.29427 13.75 3.125 13.75C2.95573 13.75 2.80599 13.6914 2.67578 13.5742L0.195312 11.0742C0 10.8659 -0.0520833 10.638 0.0390625 10.3906C0.15625 10.1432 0.351562 10.013 0.625 10H5.60547C5.87891 10.013 6.07422 10.1432 6.19141 10.3906C6.28255 10.638 6.24349 10.8659 6.07422 11.0742Z" fill="#6B6B6B"/>
<path d="M0.175781 5.42578L2.65625 2.92578C2.79948 2.80859 2.95573 2.75 3.125 2.75C3.29427 2.75 3.44401 2.80859 3.57422 2.92578L6.05469 5.42578C6.23698 5.63411 6.28255 5.86198 6.19141 6.10938C6.08724 6.35677 5.89193 6.48698 5.60547 6.5H0.625C0.351562 6.48698 0.15625 6.35677 0.0390625 6.10938C-0.0520833 5.86198 -0.00651042 5.63411 0.175781 5.42578Z" fill="#6B6B6B"/>
</g>
<defs>
<clipPath id="clip0_53_3623">
<rect width="6" height="16" fill="white"/>
</clipPath>
</defs>
</svg>
