<svg width="30" height="30" viewBox="0 0 30 30" fill="none" xmlns="http://www.w3.org/2000/svg">
<path d="M26.7656 6.76563C27.7422 5.78906 27.7422 4.20312 26.7656 3.22656C25.7891 2.25 24.2031 2.25 23.2266 3.22656L15 11.4609L6.76562 3.23437C5.78906 2.25781 4.20312 2.25781 3.22656 3.23437C2.25 4.21094 2.25 5.79687 3.22656 6.77344L11.4609 15L3.23438 23.2344C2.25781 24.2109 2.25781 25.7969 3.23438 26.7734C4.21094 27.75 5.79687 27.75 6.77344 26.7734L15 18.5391L23.2344 26.7656C24.2109 27.7422 25.7969 27.7422 26.7734 26.7656C27.75 25.7891 27.75 24.2031 26.7734 23.2266L18.5391 15L26.7656 6.76563Z" fill="white"/>
</svg>
