<svg width="20" height="20" viewBox="0 0 20 20" fill="none" xmlns="http://www.w3.org/2000/svg">
<path d="M9.99922 4.5C7.96172 4.5 6.28672 5.425 5.00234 6.61562C3.79922 7.73437 2.96797 9.0625 2.54297 10C2.96797 10.9375 3.79922 12.2656 4.99922 13.3844C6.28672 14.575 7.96172 15.5 9.99922 15.5C12.0367 15.5 13.7117 14.575 14.9961 13.3844C16.1992 12.2656 17.0305 10.9375 17.4555 10C17.0305 9.0625 16.1992 7.73437 14.9992 6.61562C13.7117 5.425 12.0367 4.5 9.99922 4.5ZM3.98047 5.51875C5.45234 4.15 7.47422 3 9.99922 3C12.5242 3 14.5461 4.15 16.018 5.51875C17.4805 6.87812 18.4586 8.5 18.9242 9.61562C19.0273 9.8625 19.0273 10.1375 18.9242 10.3844C18.4586 11.5 17.4805 13.125 16.018 14.4812C14.5461 15.85 12.5242 17 9.99922 17C7.47422 17 5.45234 15.85 3.98047 14.4812C2.51797 13.125 1.53984 11.5 1.07734 10.3844C0.974219 10.1375 0.974219 9.8625 1.07734 9.61562C1.53984 8.5 2.51797 6.875 3.98047 5.51875ZM9.99922 12.5C11.3805 12.5 12.4992 11.3813 12.4992 10C12.4992 8.61875 11.3805 7.5 9.99922 7.5C9.97734 7.5 9.95859 7.5 9.93672 7.5C9.97734 7.65937 9.99922 7.82812 9.99922 8C9.99922 9.10312 9.10234 10 7.99922 10C7.82734 10 7.65859 9.97812 7.49922 9.9375C7.49922 9.95937 7.49922 9.97813 7.49922 10C7.49922 11.3813 8.61797 12.5 9.99922 12.5ZM9.99922 6C11.0601 6 12.0775 6.42143 12.8276 7.17157C13.5778 7.92172 13.9992 8.93913 13.9992 10C13.9992 11.0609 13.5778 12.0783 12.8276 12.8284C12.0775 13.5786 11.0601 14 9.99922 14C8.93835 14 7.92094 13.5786 7.17079 12.8284C6.42065 12.0783 5.99922 11.0609 5.99922 10C5.99922 8.93913 6.42065 7.92172 7.17079 7.17157C7.92094 6.42143 8.93835 6 9.99922 6Z" fill="#6B6B6B"/>
</svg>
