<svg width="20" height="20" viewBox="0 0 20 20" fill="none" xmlns="http://www.w3.org/2000/svg">
<g clip-path="url(#clip0_111_3633)">
<path d="M5.37891 5.29297C5.98047 4.80078 6.66406 4.39974 7.42969 4.08984C8.21354 3.79818 9.07031 3.64323 10 3.625C11.112 3.64323 12.1055 3.86198 12.9805 4.28125C13.8555 4.70052 14.6211 5.22005 15.2773 5.83984C15.9154 6.44141 16.444 7.0612 16.8633 7.69922C17.2826 8.33724 17.6016 8.91146 17.8203 9.42188C17.8932 9.64062 17.8932 9.85938 17.8203 10.0781C17.6198 10.5339 17.3372 11.0443 16.9727 11.6094C16.6081 12.1927 16.1615 12.7669 15.6328 13.332L18.5039 15.5742C18.7956 15.8477 18.832 16.1576 18.6133 16.5039C18.3398 16.7956 18.0299 16.832 17.6836 16.6133L1.49609 3.92578C1.20443 3.65234 1.16797 3.34245 1.38672 2.99609C1.66016 2.70443 1.97005 2.66797 2.31641 2.88672L5.37891 5.29297ZM6.44531 6.14062L7.70312 7.125C8.34115 6.5599 9.10677 6.26823 10 6.25C10.9844 6.26823 11.8138 6.60547 12.4883 7.26172C13.1445 7.9362 13.4818 8.76562 13.5 9.75C13.5 10.3333 13.3724 10.8711 13.1172 11.3633L14.5938 12.5117C15.0495 12.0378 15.4414 11.5547 15.7695 11.0625C16.0977 10.5703 16.3529 10.1328 16.5352 9.75C16.3346 9.3125 16.0521 8.83854 15.6875 8.32812C15.3411 7.79948 14.9036 7.28906 14.375 6.79688C13.8099 6.25 13.1628 5.80339 12.4336 5.45703C11.7044 5.11068 10.8932 4.92839 10 4.91016C8.61458 4.96484 7.42969 5.375 6.44531 6.14062ZM12.0508 10.5156C12.1419 10.2786 12.1875 10.0143 12.1875 9.72266C12.1693 9.12109 11.9596 8.61068 11.5586 8.19141C11.1393 7.77214 10.6198 7.55339 10 7.53516C10 7.53516 9.99089 7.53516 9.97266 7.53516C9.95443 7.55339 9.9362 7.5625 9.91797 7.5625C9.97266 7.70833 10 7.84505 10 7.97266C10 8.28255 9.9362 8.54688 9.80859 8.76562L12.0508 10.5156ZM12.2969 14.0977L13.4453 15C12.4609 15.5469 11.3125 15.8385 10 15.875C8.88802 15.8568 7.89453 15.638 7.01953 15.2188C6.14453 14.7995 5.37891 14.2799 4.72266 13.6602C4.08464 13.0404 3.55599 12.4206 3.13672 11.8008C2.71745 11.1628 2.39844 10.5885 2.17969 10.0781C2.10677 9.85938 2.10677 9.64062 2.17969 9.42188C2.45312 8.76562 2.89974 8.01823 3.51953 7.17969L4.55859 7.97266C4.04818 8.62891 3.68359 9.21224 3.46484 9.72266C3.66536 10.1602 3.9388 10.6432 4.28516 11.1719C4.64974 11.7005 5.09635 12.2109 5.625 12.7031C6.1901 13.25 6.83724 13.6875 7.56641 14.0156C8.29557 14.362 9.10677 14.5443 10 14.5625C10.8385 14.5443 11.6042 14.3893 12.2969 14.0977ZM6.5 9.72266C6.5 9.66797 6.5 9.60417 6.5 9.53125L8.03125 10.7344C8.34115 11.3359 8.83333 11.7096 9.50781 11.8555L11.0391 13.0859C10.7109 13.1771 10.3555 13.2318 9.97266 13.25C8.98828 13.2318 8.16797 12.8854 7.51172 12.2109C6.85547 11.5547 6.50911 10.7253 6.47266 9.72266H6.5Z" fill="#6B6B6B"/>
</g>
<defs>
<clipPath id="clip0_111_3633">
<rect width="20" height="20" fill="white"/>
</clipPath>
</defs>
</svg>
