<svg width="22" height="22" viewBox="0 0 22 22" fill="none" xmlns="http://www.w3.org/2000/svg">
<path d="M19.7477 5.73C19.7611 5.93614 19.7611 6.14227 19.7611 6.35031C19.7611 12.6893 15.2208 20 6.91863 20V19.9962C4.46614 20 2.06459 19.2533 0 17.8455C0.356612 17.8911 0.715011 17.9139 1.0743 17.9149C3.10672 17.9168 5.08105 17.192 6.67999 15.8573C4.74857 15.8184 3.05489 14.4799 2.46321 12.5259C3.13979 12.6646 3.83693 12.6361 4.501 12.4432C2.39529 11.9911 0.880358 10.0247 0.880358 7.74102V7.68023C1.50778 8.05165 2.21028 8.25779 2.92886 8.28059C0.945602 6.87183 0.334268 4.06761 1.53191 1.87514C3.82352 4.8722 7.20463 6.69419 10.8342 6.88703C10.4704 5.22083 10.9674 3.47484 12.14 2.30357C13.9579 0.487282 16.8171 0.580376 18.5259 2.5116C19.5368 2.29977 20.5056 1.90554 21.3922 1.34698C21.0553 2.45746 20.3501 3.40075 19.4081 4.00016C20.3027 3.88807 21.1768 3.63348 22 3.24496C21.394 4.2101 20.6308 5.05079 19.7477 5.73Z" fill="#1D9BF0"/>
</svg>
