<svg width="27" height="24" viewBox="0 0 27 24" fill="none" xmlns="http://www.w3.org/2000/svg">
<path d="M4.5 0C5.09375 0.03125 5.46875 0.34375 5.625 0.9375L5.67188 1.5H25.4062C25.9062 1.53125 26.2969 1.73438 26.5781 2.10938C26.8594 2.48438 26.9531 2.92187 26.8594 3.42188L24.3281 12.4219C24.0781 13.1094 23.5938 13.4688 22.875 13.5H8.01562L8.4375 15.75H22.875C23.5625 15.8125 23.9375 16.1875 24 16.875C23.9375 17.5625 23.5625 17.9375 22.875 18H7.45312C6.89062 17.9688 6.53125 17.6719 6.375 17.1094L3.5625 2.25H1.125C0.4375 2.1875 0.0625 1.8125 0 1.125C0.0625 0.4375 0.4375 0.0625 1.125 0H4.5ZM22.3125 11.25L24.4219 3.75H6.14062L7.59375 11.25H22.3125ZM6 21.75C6.03125 21.125 6.25 20.5938 6.65625 20.1562C7.09375 19.75 7.625 19.5312 8.25 19.5C8.875 19.5312 9.40625 19.75 9.84375 20.1562C10.25 20.5938 10.4688 21.125 10.5 21.75C10.4688 22.375 10.25 22.9062 9.84375 23.3438C9.40625 23.75 8.875 23.9688 8.25 24C7.625 23.9688 7.09375 23.75 6.65625 23.3438C6.25 22.9062 6.03125 22.375 6 21.75ZM24 21.75C23.9688 22.375 23.75 22.9062 23.3438 23.3438C22.9062 23.75 22.375 23.9688 21.75 24C21.125 23.9688 20.5938 23.75 20.1562 23.3438C19.75 22.9062 19.5312 22.375 19.5 21.75C19.5312 21.125 19.75 20.5938 20.1562 20.1562C20.5938 19.75 21.125 19.5312 21.75 19.5C22.375 19.5312 22.9062 19.75 23.3438 20.1562C23.75 20.5938 23.9688 21.125 24 21.75Z" fill="#036666"/>
</svg>
