<svg width="21" height="20" viewBox="0 0 21 20" fill="none" xmlns="http://www.w3.org/2000/svg">
<path d="M12.4219 1.32812L20.6719 9.20312C20.8906 9.42188 21 9.6875 21 10C21 10.3125 20.8906 10.5781 20.6719 10.7969L12.4219 18.6719C11.8594 19.1094 11.3281 19.1094 10.8281 18.6719C10.3906 18.1094 10.3906 17.5781 10.8281 17.0781L17.0625 11.125H1.125C0.4375 11.0625 0.0625 10.6875 0 10C0.0625 9.3125 0.4375 8.9375 1.125 8.875H17.0625L10.8281 2.92188C10.3906 2.42187 10.3906 1.89062 10.8281 1.32812C11.3281 0.890625 11.8594 0.890625 12.4219 1.32812Z" fill="#036666"/>
</svg>
