<svg width="24" height="24" viewBox="0 0 24 24" fill="none" xmlns="http://www.w3.org/2000/svg">
<path d="M9.78281 5.11719C8.79844 6.71563 8.23125 8.6 8.23125 10.6156C8.23125 15.2094 11.175 19.1188 15.2812 20.5391C14.7 20.6703 14.0953 20.7406 13.4719 20.7406C8.93437 20.7406 5.25 17.0516 5.25 12.4906C5.25 9.26094 7.09688 6.47188 9.7875 5.11719H9.78281ZM12.6938 2.02344C7.27031 2.42188 3 6.95469 3 12.4906C3 18.2891 7.6875 22.9906 13.4766 22.9906C15.7172 22.9906 17.7891 22.2875 19.4953 21.0875C19.5844 21.0266 19.6687 20.9609 19.7531 20.9C19.9781 20.7313 20.1937 20.5531 20.4047 20.3656C20.5312 20.2531 20.6531 20.1406 20.775 20.0234C21.0094 19.7938 21.0703 19.4375 20.9203 19.1469C20.7703 18.8563 20.4469 18.6922 20.1234 18.7484C19.95 18.7766 19.7766 18.8047 19.6031 18.8234C19.3688 18.8469 19.1297 18.8656 18.8859 18.8703C18.8297 18.8703 18.7688 18.8703 18.7125 18.8703C18.7078 18.8703 18.7031 18.8703 18.6984 18.8703C14.1609 18.8609 10.4859 15.1719 10.4859 10.6203C10.4859 8.05156 11.6531 5.75938 13.4906 4.24531C13.5375 4.20312 13.5891 4.16563 13.6406 4.12344C13.8281 3.97344 14.025 3.83281 14.2266 3.70156C14.3719 3.60781 14.5219 3.51406 14.6766 3.42969C14.9625 3.26563 15.1078 2.9375 15.0375 2.61875C14.9672 2.3 14.6953 2.06094 14.3672 2.03281C14.1984 2.01875 14.0344 2.00937 13.8656 2.00469C13.7391 2 13.6078 2 13.4813 2C13.3266 2 13.1766 2.00469 13.0219 2.00938C12.9141 2.01406 12.8062 2.01875 12.6984 2.02812L12.6938 2.02344Z" fill="#036666"/>
</svg>
