<svg width="23" height="24" viewBox="0 0 23 24" fill="none" xmlns="http://www.w3.org/2000/svg">
<path d="M13 1.5V2.34375C14.75 2.65625 16.1719 3.45313 17.2656 4.73438C18.3906 6.01562 18.9688 7.5625 19 9.375V10.9219C19.0312 13.1094 19.7188 15.0625 21.0625 16.7812L21.7656 17.6719C22.0469 18.0469 22.0938 18.4375 21.9062 18.8438C21.6875 19.25 21.3438 19.4688 20.875 19.5H2.125C1.65625 19.4688 1.3125 19.25 1.09375 18.8438C0.90625 18.4375 0.953125 18.0469 1.23438 17.6719L1.9375 16.7812C3.28125 15.0625 3.96875 13.1094 4 10.9219V9.375C4.03125 7.5625 4.60938 6.01562 5.73438 4.73438C6.82812 3.45313 8.25 2.65625 10 2.34375V1.5C10 1.0625 10.1406 0.703125 10.4219 0.421875C10.7031 0.140625 11.0625 0 11.5 0C11.9375 0 12.2969 0.140625 12.5781 0.421875C12.8594 0.703125 13 1.0625 13 1.5ZM11.125 4.5C9.75 4.53125 8.59375 5 7.65625 5.90625C6.75 6.84375 6.28125 8 6.25 9.375V10.9219C6.25 13.2344 5.625 15.3438 4.375 17.25H18.625C17.375 15.3438 16.75 13.2344 16.75 10.9219V9.375C16.7188 8 16.25 6.84375 15.3438 5.90625C14.4062 5 13.25 4.53125 11.875 4.5H11.125ZM14.5 21C14.5 21.8125 14.2031 22.5156 13.6094 23.1094C13.0156 23.7031 12.3125 24 11.5 24C10.6875 24 9.98438 23.7031 9.39062 23.1094C8.79688 22.5156 8.5 21.8125 8.5 21H14.5Z" fill="#036666"/>
</svg>
