<svg width="21" height="18" viewBox="0 0 21 18" fill="none" xmlns="http://www.w3.org/2000/svg">
<path d="M0 1.125C0.0625 0.4375 0.4375 0.0625 1.125 0H19.875C20.5625 0.0625 20.9375 0.4375 21 1.125C20.9375 1.8125 20.5625 2.1875 19.875 2.25H1.125C0.4375 2.1875 0.0625 1.8125 0 1.125ZM0 8.625C0.0625 7.9375 0.4375 7.5625 1.125 7.5H13.875C14.5625 7.5625 14.9375 7.9375 15 8.625C14.9375 9.3125 14.5625 9.6875 13.875 9.75H1.125C0.4375 9.6875 0.0625 9.3125 0 8.625ZM7.875 17.25H1.125C0.4375 17.1875 0.0625 16.8125 0 16.125C0.0625 15.4375 0.4375 15.0625 1.125 15H7.875C8.5625 15.0625 8.9375 15.4375 9 16.125C8.9375 16.8125 8.5625 17.1875 7.875 17.25Z" fill="#036666"/>
</svg>
