<svg width="25" height="24" viewBox="0 0 25 24" fill="none" xmlns="http://www.w3.org/2000/svg">
<path d="M23.625 22.0781C24.0938 22.6094 24.1094 23.1406 23.6719 23.6719C23.4531 23.8906 23.1875 24 22.875 24C22.5938 24 22.3125 23.8906 22.0312 23.6719L15.75 17.3906C14.0625 18.7656 12.0469 19.4688 9.70312 19.5C6.95312 19.4375 4.67188 18.4844 2.85938 16.6406C1.01563 14.7969 0.0625 12.5 0 9.75C0.0625 7 1 4.70312 2.8125 2.85938C4.65625 1.01563 6.95312 0.0625 9.70312 0C12.4531 0.0625 14.75 1.01563 16.5938 2.85938C18.4375 4.70312 19.3906 7 19.4531 9.75C19.4219 12.0625 18.7188 14.0781 17.3438 15.7969L23.625 22.0781ZM2.25 9.75C2.3125 11.875 3.04688 13.6406 4.45312 15.0469C5.85938 16.4531 7.625 17.1875 9.75 17.25C11.875 17.1875 13.6406 16.4531 15.0469 15.0469C16.4531 13.6406 17.1875 11.875 17.25 9.75C17.1875 7.625 16.4531 5.85938 15.0469 4.45312C13.6406 3.04688 11.875 2.3125 9.75 2.25C7.625 2.3125 5.85938 3.04688 4.45312 4.45312C3.04688 5.85938 2.3125 7.625 2.25 9.75Z" fill="#036666"/>
</svg>
