<svg width="24" height="24" viewBox="0 0 24 24" fill="none" xmlns="http://www.w3.org/2000/svg">
<path d="M12 6.75C13.5 6.78125 14.7344 7.29688 15.7031 8.29688C16.7031 9.26562 17.2188 10.5 17.25 12C17.2188 13.5 16.7031 14.7344 15.7031 15.7031C14.7344 16.7031 13.5 17.2188 12 17.25C10.5 17.2188 9.26562 16.7031 8.29688 15.7031C7.29688 14.7344 6.78125 13.5 6.75 12C6.78125 10.5 7.29688 9.26562 8.29688 8.29688C9.26562 7.29688 10.5 6.78125 12 6.75ZM12 15C12.8438 14.9688 13.5469 14.6719 14.1094 14.1094C14.6719 13.5469 14.9688 12.8438 15 12C14.9688 11.1562 14.6719 10.4531 14.1094 9.89062C13.5469 9.32812 12.8438 9.03125 12 9C11.1562 9.03125 10.4531 9.32812 9.89062 9.89062C9.32812 10.4531 9.03125 11.1562 9 12C9.03125 12.8438 9.32812 13.5469 9.89062 14.1094C10.4531 14.6719 11.1562 14.9688 12 15ZM12 5.25C11.3125 5.1875 10.9375 4.8125 10.875 4.125V1.125C10.9375 0.4375 11.3125 0.0625 12 0C12.6875 0.0625 13.0625 0.4375 13.125 1.125V4.125C13.0625 4.8125 12.6875 5.1875 12 5.25ZM12 18.75C12.6875 18.8125 13.0625 19.1875 13.125 19.875V22.875C13.0625 23.5625 12.6875 23.9375 12 24C11.3125 23.9375 10.9375 23.5625 10.875 22.875V19.875C10.9375 19.1875 11.3125 18.8125 12 18.75ZM22.875 10.875C23.5625 10.9375 23.9375 11.3125 24 12C23.9375 12.6875 23.5625 13.0625 22.875 13.125H19.875C19.1875 13.0625 18.8125 12.6875 18.75 12C18.8125 11.3125 19.1875 10.9375 19.875 10.875H22.875ZM5.25 12C5.1875 12.6875 4.8125 13.0625 4.125 13.125H1.125C0.4375 13.0625 0.0625 12.6875 0 12C0.0625 11.3125 0.4375 10.9375 1.125 10.875H4.125C4.8125 10.9375 5.1875 11.3125 5.25 12ZM18.375 16.7812L20.4844 18.8906C20.9219 19.4219 20.9219 19.9531 20.4844 20.4844C20.2656 20.7031 20 20.8125 19.6875 20.8125C19.375 20.8125 19.1094 20.7031 18.8906 20.4844L16.7812 18.375C16.3438 17.8438 16.3438 17.3125 16.7812 16.7812C17.3125 16.3438 17.8438 16.3438 18.375 16.7812ZM5.625 7.21875L3.51562 5.10938C3.07812 4.57813 3.07812 4.04687 3.51562 3.51562C4.04688 3.07813 4.57812 3.07813 5.10938 3.51562L7.21875 5.625C7.65625 6.15625 7.65625 6.6875 7.21875 7.21875C7 7.4375 6.73438 7.54688 6.42188 7.54688C6.14062 7.54688 5.875 7.4375 5.625 7.21875ZM17.5781 7.54688C17.2656 7.54688 17 7.4375 16.7812 7.21875C16.3438 6.6875 16.3438 6.15625 16.7812 5.625L18.8906 3.51562C19.4219 3.07813 19.9531 3.07813 20.4844 3.51562C20.9219 4.04687 20.9219 4.57813 20.4844 5.10938L18.375 7.21875C18.125 7.4375 17.8594 7.54688 17.5781 7.54688ZM5.625 16.7812C6.15625 16.3438 6.6875 16.3438 7.21875 16.7812C7.65625 17.3125 7.65625 17.8438 7.21875 18.375L5.10938 20.4844C4.89062 20.7031 4.625 20.8125 4.3125 20.8125C4 20.8125 3.73438 20.7031 3.51562 20.4844C3.07812 19.9531 3.07812 19.4219 3.51562 18.8906L5.625 16.7812Z" fill="#036666"/>
</svg>
